<?xml version="1.0" encoding="UTF-8" standalone="no"?>
<svg
   xmlns:osb="http://www.openswatchbook.org/uri/2009/osb"
   xmlns:dc="http://purl.org/dc/elements/1.1/"
   xmlns:cc="http://creativecommons.org/ns#"
   xmlns:rdf="http://www.w3.org/1999/02/22-rdf-syntax-ns#"
   xmlns:svg="http://www.w3.org/2000/svg"
   xmlns="http://www.w3.org/2000/svg"
   id="svg8"
   version="1.1"
   viewBox="0 0 210 297"
   height="297mm"
   width="210mm">
  <defs
     id="defs2">
    <linearGradient
       osb:paint="solid"
       id="linearGradient2504">
      <stop
         id="stop2502"
         offset="0"
         style="stop-color:#0000ff;stop-opacity:1;" />
    </linearGradient>
  </defs>
  <metadata
     id="metadata5">
    <rdf:RDF>
      <cc:Work
         rdf:about="">
        <dc:format>image/svg+xml</dc:format>
        <dc:type
           rdf:resource="http://purl.org/dc/dcmitype/StillImage" />
        <dc:title></dc:title>
      </cc:Work>
    </rdf:RDF>
  </metadata>
  <g
     id="layer1">
    <ellipse
       ry="18.331844"
       rx="12.756697"
       cy="25.424107"
       cx="93.265625"
       id="path24"
       style="opacity:0.997;fill:#241c1c;fill-opacity:0;fill-rule:evenodd;stroke-width:0.26458332" />
    <g
       id="g2599">
      <path
         style="opacity:0.60900005;fill:#2a7fff;fill-opacity:0.80672272;fill-rule:nonzero;stroke:none;stroke-width:0.48100001;stroke-miterlimit:4;stroke-dasharray:none;stroke-opacity:1"
         d="m 91.099149,64.204381 a 26.054739,24.949081 75.992099 0 0 -25.015212,25.456561 26.054739,24.949081 75.992099 0 0 0.164489,2.715979 L 90.634458,116.10671 116.05577,92.445109 a 26.054739,24.949081 75.992099 0 0 0.0586,-1.725269 26.054739,24.949081 75.992099 0 0 -25.015251,-26.515459 z m -0.464691,51.902329 -0.03583,0.0333 a 26.054739,24.949081 75.992099 0 0 0.076,0.006 z"
         id="path841" />
      <ellipse
         style="opacity:0.997;fill:#0000ff;fill-opacity:1;fill-rule:evenodd;stroke-width:0.18953893"
         id="path843"
         cx="91.383408"
         cy="124.10701"
         rx="3.215579"
         ry="3.5611303" />
      <path
         id="path2594"
         d="m 90.83067,70.397467 a 20.152438,19.55828 68.550196 0 0 -19.638777,19.661039 20.152438,19.55828 68.550196 0 0 0.129137,2.09765 L 90.465853,110.48353 110.42346,92.20882 a 20.152438,19.55828 68.550196 0 0 0.0461,-1.332489 20.152438,19.55828 68.550196 0 0 -19.638815,-20.478864 z m -0.364817,40.086063 -0.02813,0.0258 a 20.152438,19.55828 68.550196 0 0 0.05967,0.004 z"
         style="opacity:0.60900005;fill:#0000ff;fill-opacity:0.80672272;fill-rule:nonzero;stroke:none;stroke-width:0.37454462;stroke-miterlimit:4;stroke-dasharray:none;stroke-opacity:1" />
    </g>
  </g>
</svg>
